#!OML:ASF H:\Terrain\Patient Classification 1\Walking\liu\liu.ASF
:FULLY-SPECIFIED
:DEGREES
251
root 9.38708 17.1572 13.5358 5.93995 3.76156 2.54947
lowerback -5.13004 -2.53142 -3.87255
upperback -1.0114 -3.21584 2.31106
thorax 2.17756 -1.6405 4.33221
lowerneck -24.0521 -1.08299 -10.4163
upperneck 19.7065 0.566066 6.71742
head 10.2024 0.294323 4.21712
rclavicle 3.12837e-014 -1.19271e-014
rhumerus -40.6211 16.8708 -88.1539
rradius 36.0889
rwrist -16.1934
rhand -32.8013 -22.3665
rfingers 7.12502
rthumb -6.02241 -52.261
lclavicle 3.12837e-014 -1.19271e-014
lhumerus -21.901 -20.6151 91.6646
lradius 26.0088
lwrist 2.22483
lhand -15.4129 -27.3792
lfingers 7.12502
lthumb 10.7665 2.32491
rfemur -36.583 -5.44932 19.7049
rtibia 54.7762
rfoot -12.9756 -7.63152
rtoes -20.3835
lfemur -8.34216 0.837779 -28.844
ltibia 21.8015
lfoot -18.9307 1.48957
ltoes 4.12314
252
root 9.38956 17.1234 13.7266 5.96437 4.01154 2.57516
lowerback -5.1473 -2.58286 -3.88959
upperback -1.10173 -3.28188 2.26441
thorax 2.09897 -1.66984 4.28946
lowerneck -23.5572 -1.13136 -10.5144
upperneck 19.5322 0.416823 6.98141
head 10.0639 0.249285 4.29481
rclavicle 3.23025e-016 2.14687e-014
rhumerus -41.5515 16.0772 -88.1385
rradius 35.7055
rwrist -15.5123
rhand -32.5798 -23.8899
rfingers 7.12502
rthumb -5.80851 -53.7903
lclavicle 3.23025e-016 2.14687e-014
lhumerus -20.9315 -22.2652 91.445
lradius 26.5126
lwrist 2.63262
lhand -15.5277 -27.2022
lfingers 7.12502
lthumb 10.6557 2.50765
rfemur -36.7786 -4.77873 19.5236
rtibia 52.0302
rfoot -13.1654 -7.90056
rtoes -21.3007
lfemur -7.14813 1.41962 -28.8509
ltibia 20.9218
lfoot -18.8391 1.14256
ltoes 2.59607
253
root 9.38982 17.0988 13.9119 6.09055 4.27949 2.55322
lowerback -5.25464 -2.59935 -3.92965
upperback -1.04381 -3.2976 2.24726
thorax 2.22172 -1.68166 4.28686
lowerneck -23.5312 -1.24389 -10.8543
upperneck 19.3909 0.219671 7.63959
head 10.0251 0.215888 4.55821
rclavicle 1.34428e-014 -9.54166e-015
rhumerus -41.9404 15.2665 -88.0097
rradius 35.2484
rwrist -15.2206
rhand -32.5765 -27.8338
rfingers 7.12502
rthumb -5.80535 -57.7342
lclavicle 1.34428e-014 -9.54166e-015
lhumerus -19.5252 -23.8338 91.0471
lradius 26.9813
lwrist 3.41289
lhand -15.3139 -26.8479
lfingers 7.12502
lthumb 10.862 2.85118
rfemur -36.9687 -3.73586 19.2648
rtibia 49.0358
rfoot -13.8101 -7.74501
rtoes -20.5093
lfemur -6.02605 1.61007 -28.7419
ltibia 19.8758
lfoot -18.9385 0.774458
ltoes 2.08899
254
root 9.39375 17.0983 14.1048 6.28506 4.4278 2.589
lowerback -5.53948 -2.612 -4.0923
upperback -0.940799 -3.29677 2.30628
thorax 2.50014 -1.69108 4.42552
lowerneck -23.8892 -1.30804 -10.8656
upperneck 19.5089 0.181148 7.60372
head 10.1361 0.194892 4.55101
rclavicle -2.11209e-015 1.51076e-014
rhumerus -42.1095 15.0241 -87.8822
rradius 34.6091
rwrist -15.3075
rhand -30.8595 -31.9559
rfingers 7.12502
rthumb -4.14744 -61.8953
lclavicle -2.11209e-015 1.51076e-014
lhumerus -17.9762 -24.4085 90.6514
lradius 27.3194
lwrist 3.41668
lhand -15.3677 -26.9455
lfingers 7.12502
lthumb 10.8101 2.75629
rfemur -37.1937 -2.57284 18.8591
rtibia 45.7888
rfoot -14.3879 -7.48253
rtoes -20.0413
lfemur -4.96831 1.47977 -28.7233
ltibia 18.9135
lfoot -19.1513 0.794773
ltoes 2.25998
255
root 9.40542 17.1185 14.3097 6.40682 4.37785 2.59377
lowerback -5.92615 -2.55582 -4.16081
upperback -0.802391 -3.20563 2.37419
thorax 2.85774 -1.65756 4.52428
lowerneck -24.2555 -1.44251 -11.0659
upperneck 19.563 0.0778848 7.72384
head 10.2322 0.150266 4.62083
rclavicle -2.59662e-014 -2.3059e-014
rhumerus -42.3561 14.903 -87.7608
rradius 33.8599
rwrist -15.4486
rhand -29.3714 -33.188
rfingers 7.12502
rthumb -2.71036 -63.1505
lclavicle -2.59662e-014 -2.3059e-014
lhumerus -16.4437 -24.5068 90.3083
lradius 27.539
lwrist 2.80582
lhand -15.4832 -27.2233
lfingers 7.12502
lthumb 10.6987 2.48432
rfemur -37.2308 -1.29916 18.3795
rtibia 42.3898
rfoot -14.6465 -7.15867
rtoes -18.1405
lfemur -3.8054 0.982092 -28.7366
ltibia 17.8035
lfoot -19.1774 1.21587
ltoes 3.77739
256
root 9.38835 17.1388 14.4574 6.72957 5.41859 2.79934
lowerback -5.74497 -2.88772 -4.66304
upperback -0.83125 -3.62602 2.44026
thorax 2.80881 -1.87205 4.84569
lowerneck -24.7609 -1.57083 -11.0929
upperneck 19.7644 -0.0654323 7.83607
head 10.4114 0.0985512 4.66039
rclavicle 4.26393e-014 -2.38542e-015
rhumerus -42.4019 14.2422 -87.531
rradius 32.8164
rwrist -14.8901
rhand -30.7659 -30.4307
rfingers 7.12502
rthumb -4.05705 -60.3718
lclavicle 4.26393e-014 -2.38542e-015
lhumerus -14.8391 -24.3627 89.7589
lradius 27.8254
lwrist 2.22705
lhand -15.0931 -27.3164
lfingers 7.12502
lthumb 11.075 2.37138
rfemur -37.4828 -0.334295 17.5782
rtibia 39.0946
rfoot -15.294 -7.62547
rtoes -17.0641
lfemur -2.88272 0.725046 -28.6667
ltibia 16.2314
lfoot -18.5577 0.356016
ltoes 3.80918
257
root 9.38678 17.1151 14.654 6.81813 5.42955 2.98759
lowerback -6.05701 -2.95084 -4.96629
upperback -0.65345 -3.67367 2.34913
thorax 3.18719 -1.91252 4.89778
lowerneck -25.1635 -1.52594 -10.4766
upperneck 20.0619 -0.0698487 7.33932
head 10.5929 0.0809324 4.38916
rclavicle 4.6615e-014 -1.35174e-014
rhumerus -42.6427 13.2761 -87.2274
rradius 32.0727
rwrist -13.9955
rhand -31.8978 -26.3805
rfingers 7.12502
rthumb -5.15008 -56.2979
lclavicle 4.6615e-014 -1.35174e-014
lhumerus -13.4412 -24.8779 89.0493
lradius 28.2922
lwrist 2.87307
lhand -14.9865 -27.323
lfingers 7.12502
lthumb 11.1777 2.35924
rfemur -37.5105 0.920907 16.8947
rtibia 36.0394
rfoot -16.0986 -7.46281
rtoes -17.4807
lfemur -1.16711 1.27165 -28.7643
ltibia 14.3557
lfoot -18.4585 0.0679897
ltoes 1.54534
258
root 9.39251 17.0954 14.8669 6.97029 5.54382 3.35819
lowerback -6.4542 -3.07624 -5.314
upperback -0.719866 -3.79247 2.17746
thorax 3.36614 -1.97769 4.88466
lowerneck -24.8495 -1.41652 -10.0878
upperneck 20.1881 -0.0400119 7.10014
head 10.5794 0.0886357 4.24006
rclavicle 4.08006e-014 -1.59028e-014
rhumerus -43.2627 12.2976 -86.9012
rradius 31.1165
rwrist -13.0533
rhand -31.0286 -24.3259
rfingers 7.12502
rthumb -4.31079 -54.262
lclavicle 4.08006e-014 -1.59028e-014
lhumerus -12.7215 -26.0284 88.5817
lradius 28.8596
lwrist 4.182
lhand -15.4071 -27.1115
lfingers 7.12502
lthumb 10.7721 2.59225
rfemur -37.582 1.894 15.9907
rtibia 33.3034
rfoot -16.951 -7.32737
rtoes -17.8364
lfemur 0.630152 1.29715 -29.0984
ltibia 12.3619
lfoot -18.1674 0.0320702
ltoes 1.1868
259
root 9.39603 17.1011 15.0692 7.12597 5.671 3.66526
lowerback -6.67653 -3.15171 -5.60242
upperback -0.89203 -3.85773 2.04842
thorax 3.32944 -2.00733 4.89897
lowerneck -24.4154 -1.44151 -10.2029
upperneck 20.313 -0.155317 7.38459
head 10.5578 0.0549297 4.34496
rclavicle -2.65129e-014 -7.95139e-016
rhumerus -44.3477 12.6736 -87.8515
rradius 30.4394
rwrist -14.9937
rhand -32.4202 -26.6692
rfingers 7.12502
rthumb -5.6544 -56.5737
lclavicle -2.65129e-014 -7.95139e-016
lhumerus -12.1701 -26.9089 88.273
lradius 29.3804
lwrist 4.7836
lhand -16.0711 -27.0853
lfingers 7.12502
lthumb 10.1315 2.65077
rfemur -37.9478 3.50905 14.8479
rtibia 30.9117
rfoot -17.7989 -8.28338
rtoes -18.307
lfemur 2.42846 1.28854 -29.3452
ltibia 10.0452
lfoot -17.3783 0.0490056
ltoes 1.12005
260
root 9.38164 17.0983 15.2444 7.35933 5.84716 3.75039
lowerback -6.6802 -3.21765 -5.91073
upperback -0.964376 -3.92409 2.04894
thorax 3.2854 -2.04136 5.06799
lowerneck -24.4269 -1.49189 -10.2135
upperneck 20.289 -0.278532 7.61247
head 10.5635 0.0271602 4.41193
rclavicle 1.04859e-014 -1.27222e-014
rhumerus -44.8632 12.5988 -88.2226
rradius 29.6663
rwrist -14.9924
rhand -33.2019 -27.2708
rfingers 7.12502
rthumb -6.40912 -57.1538
lclavicle 1.04859e-014 -1.27222e-014
lhumerus -11.0984 -27.1454 87.7757
lradius 29.7821
lwrist 4.71133
lhand -16.5083 -27.2117
lfingers 7.12502
lthumb 9.70977 2.54448
rfemur -38.7008 6.01838 13.5873
rtibia 28.8674
rfoot -19.1595 -10.2839
rtoes -17.7374
lfemur 4.25556 1.49074 -29.2539
ltibia 7.21763
lfoot -16.296 0.186699
ltoes -0.0240688
261
root 9.36372 17.099 15.4326 7.70079 6.10259 3.60391
lowerback -6.83037 -3.39181 -6.04892
upperback -1.16038 -4.14355 2.15357
thorax 3.21193 -2.14574 5.22897
lowerneck -24.0074 -1.31235 -10.0532
upperneck 20.0544 -0.115311 7.57762
head 10.3846 0.109285 4.38293
rclavicle -9.69075e-016 7.15625e-015
rhumerus -45.1724 11.8511 -87.7486
rradius 28.6299
rwrist -13.2939
rhand -35.8964 -23.5061
rfingers 7.12502
rthumb -9.00987 -53.2937
lclavicle -9.69075e-016 7.15625e-015
lhumerus -10.3339 -26.4666 87.3566
lradius 30.2258
lwrist 4.38309
lhand -15.9761 -27.0551
lfingers 7.12502
lthumb 10.2232 2.67645
rfemur -39.6588 9.01322 12.1956
rtibia 27.2614
rfoot -21.3205 -12.5818
rtoes -16.4605
lfemur 7.19544 1.61268 -28.8694
ltibia 2.016
lfoot -14.0545 0.219195
ltoes 1.14969
